G04 ================== begin FILE IDENTIFICATION RECORD ==================*
G04 Layout Name:  D:/p1/allegro/P1_COPIE2.brd*
G04 Film Name:    FAB*
G04 File Format:  Gerber RS274X*
G04 File Origin:  Cadence Allegro 17.2-S025*
G04 Origin Date:  Sun Dec 10 11:52:53 2023*
G04 *
G04 Layer:  MANUFACTURING/NCDRILL_LEGEND*
G04 Layer:  MANUFACTURING/NCDRILL_FIGURE*
G04 Layer:  MANUFACTURING/XSECTION_CHART*
G04 Layer:  MANUFACTURING/NCLEGEND-1-2*
G04 Layer:  DRAWING FORMAT/OUTLINE*
G04 Layer:  BOARD GEOMETRY/DIMENSION*
G04 Layer:  BOARD GEOMETRY/DESIGN_OUTLINE*
G04 *
G04 Offset:    (0.00 0.00)*
G04 Mirror:    No*
G04 Mode:      Positive*
G04 Rotation:  0*
G04 FullContactRelief:  No*
G04 UndefLineWidth:     8.00*
G04 ================== end FILE IDENTIFICATION RECORD ====================*
%FSLAX25Y25*MOIN*%
%IR0*IPPOS*OFA0.00000B0.00000*MIA0B0*SFA1.00000B1.00000*%
%AMMACRO10*
1,1,.008,.025,0.0*
20,1,.008,.025,0.0,.02462,-.004341,0.0*
1,1,.008,.02462,-.004341*
20,1,.008,.02462,-.004341,.023492,-.008551,0.0*
1,1,.008,.023492,-.008551*
20,1,.008,.023492,-.008551,.021651,-.0125,0.0*
1,1,.008,.021651,-.0125*
20,1,.008,.021651,-.0125,.019151,-.01607,0.0*
1,1,.008,.019151,-.01607*
20,1,.008,.019151,-.01607,.01607,-.019151,0.0*
1,1,.008,.01607,-.019151*
20,1,.008,.01607,-.019151,.0125,-.021651,0.0*
1,1,.008,.0125,-.021651*
20,1,.008,.0125,-.021651,.008551,-.023492,0.0*
1,1,.008,.008551,-.023492*
20,1,.008,.008551,-.023492,.004341,-.02462,0.0*
1,1,.008,.004341,-.02462*
20,1,.008,.004341,-.02462,0.0,-.025,0.0*
1,1,.008,0.0,-.025*
20,1,.008,0.0,-.025,-.004341,-.02462,0.0*
1,1,.008,-.004341,-.02462*
20,1,.008,-.004341,-.02462,-.008551,-.023492,0.0*
1,1,.008,-.008551,-.023492*
20,1,.008,-.008551,-.023492,-.0125,-.021651,0.0*
1,1,.008,-.0125,-.021651*
20,1,.008,-.0125,-.021651,-.01607,-.019151,0.0*
1,1,.008,-.01607,-.019151*
20,1,.008,-.01607,-.019151,-.019151,-.01607,0.0*
1,1,.008,-.019151,-.01607*
20,1,.008,-.019151,-.01607,-.021651,-.0125,0.0*
1,1,.008,-.021651,-.0125*
20,1,.008,-.021651,-.0125,-.023492,-.008551,0.0*
1,1,.008,-.023492,-.008551*
20,1,.008,-.023492,-.008551,-.02462,-.004341,0.0*
1,1,.008,-.02462,-.004341*
20,1,.008,-.02462,-.004341,-.025,0.0,0.0*
1,1,.008,-.025,0.0*
20,1,.008,-.025,0.0,-.02462,.004341,0.0*
1,1,.008,-.02462,.004341*
20,1,.008,-.02462,.004341,-.023492,.008551,0.0*
1,1,.008,-.023492,.008551*
20,1,.008,-.023492,.008551,-.021651,.0125,0.0*
1,1,.008,-.021651,.0125*
20,1,.008,-.021651,.0125,-.019151,.01607,0.0*
1,1,.008,-.019151,.01607*
20,1,.008,-.019151,.01607,-.01607,.019151,0.0*
1,1,.008,-.01607,.019151*
20,1,.008,-.01607,.019151,-.0125,.021651,0.0*
1,1,.008,-.0125,.021651*
20,1,.008,-.0125,.021651,-.008551,.023492,0.0*
1,1,.008,-.008551,.023492*
20,1,.008,-.008551,.023492,-.004341,.02462,0.0*
1,1,.008,-.004341,.02462*
20,1,.008,-.004341,.02462,0.0,.025,0.0*
1,1,.008,0.0,.025*
20,1,.008,0.0,.025,.004341,.02462,0.0*
1,1,.008,.004341,.02462*
20,1,.008,.004341,.02462,.008551,.023492,0.0*
1,1,.008,.008551,.023492*
20,1,.008,.008551,.023492,.0125,.021651,0.0*
1,1,.008,.0125,.021651*
20,1,.008,.0125,.021651,.01607,.019151,0.0*
1,1,.008,.01607,.019151*
20,1,.008,.01607,.019151,.019151,.01607,0.0*
1,1,.008,.019151,.01607*
20,1,.008,.019151,.01607,.021651,.0125,0.0*
1,1,.008,.021651,.0125*
20,1,.008,.021651,.0125,.023492,.008551,0.0*
1,1,.008,.023492,.008551*
20,1,.008,.023492,.008551,.02462,.004341,0.0*
1,1,.008,.02462,.004341*
20,1,.008,.02462,.004341,.025,0.0,0.0*
1,1,.008,.025,0.0*
1,1,.008,.0125,0.0*
20,1,.008,.0125,0.0,-.0125,0.0,0.0*
1,1,.008,-.0125,0.0*
1,1,.008,0.0,.0125*
20,1,.008,0.0,.0125,0.0,-.0125,0.0*
1,1,.008,0.0,-.0125*
%
%ADD10MACRO10*%
%ADD11C,.004*%
%ADD12C,.008*%
G75*
%LPD*%
G75*
G36*
G01X-115700Y204979D02*
Y181939D01*
X-113200D01*
Y28339D01*
X-115700D01*
Y5299D01*
X-100700D01*
Y28339D01*
X-103200D01*
Y181939D01*
X-100700D01*
Y204979D01*
X-115700D01*
G37*
G36*
G01X-135700Y5299D02*
Y28339D01*
X-75700D01*
Y5299D01*
X-135700D01*
G37*
G36*
G01Y181939D02*
Y204979D01*
X-75700D01*
Y181939D01*
X-135700D01*
G37*
G54D10*
X36100Y33700D03*
X37200Y47700D03*
X37700Y73300D03*
X51900D03*
X47100Y108300D03*
X31700Y220250D03*
X61500Y27200D03*
X76800Y47700D03*
X62600Y108300D03*
X106600Y46200D03*
X107728Y73928D03*
Y64528D03*
X87900Y131500D03*
Y118200D03*
X121600Y46200D03*
G54D11*
G01X-133787Y-4067D02*
Y-1567D01*
X-133253D01*
X-133040Y-1692D01*
X-132880Y-1859D01*
X-132747Y-2109D01*
X-132640Y-2400D01*
X-132613Y-2817D01*
X-132640Y-3234D01*
X-132747Y-3525D01*
X-132880Y-3775D01*
X-133040Y-3942D01*
X-133253Y-4067D01*
X-133787D01*
G01X-130467D02*
X-131533D01*
Y-1567D01*
X-130467D01*
G01X-130893Y-2775D02*
X-131533D01*
G01X-129360Y-3734D02*
X-129147Y-3942D01*
X-128907Y-4067D01*
X-128693D01*
X-128480Y-3942D01*
X-128320Y-3734D01*
X-128240Y-3442D01*
X-128293Y-3150D01*
X-128427Y-2900D01*
X-128667Y-2734D01*
X-128987Y-2650D01*
X-129173Y-2484D01*
X-129253Y-2192D01*
X-129200Y-1900D01*
X-129067Y-1692D01*
X-128880Y-1567D01*
X-128693D01*
X-128507Y-1650D01*
X-128347Y-1859D01*
G01X-126920Y-1567D02*
X-126280D01*
G01X-126600D02*
Y-4067D01*
G01X-126920D02*
X-126280D01*
G01X-124240Y-2817D02*
X-123707D01*
Y-3567D01*
X-123867Y-3817D01*
X-124053Y-3984D01*
X-124320Y-4067D01*
X-124587Y-3984D01*
X-124773Y-3817D01*
X-124933Y-3567D01*
X-125040Y-3275D01*
X-125093Y-2942D01*
Y-2650D01*
X-125040Y-2400D01*
X-124933Y-2109D01*
X-124773Y-1859D01*
X-124613Y-1692D01*
X-124400Y-1567D01*
X-124213D01*
X-124000Y-1650D01*
X-123840Y-1817D01*
G01X-122813Y-4067D02*
Y-1567D01*
X-121587Y-4067D01*
Y-1567D01*
G01X-117213Y-1775D02*
X-117373Y-1650D01*
X-117560Y-1567D01*
X-117773D01*
X-118013Y-1692D01*
X-118200Y-1900D01*
X-118333Y-2150D01*
X-118440Y-2567D01*
X-118467Y-2942D01*
X-118413Y-3317D01*
X-118333Y-3567D01*
X-118173Y-3817D01*
X-117987Y-3984D01*
X-117800Y-4067D01*
X-117613D01*
X-117427Y-3984D01*
X-117267Y-3859D01*
X-117133Y-3692D01*
G01X-116133Y-4067D02*
Y-1567D01*
X-115467D01*
X-115253Y-1692D01*
X-115120Y-1859D01*
X-115067Y-2192D01*
X-115120Y-2525D01*
X-115280Y-2734D01*
X-115467Y-2859D01*
X-116133D01*
G01X-115467D02*
X-115067Y-4067D01*
G01X-113400D02*
X-113613Y-4025D01*
X-113800Y-3859D01*
X-113960Y-3609D01*
X-114067Y-3317D01*
X-114120Y-2984D01*
Y-2650D01*
X-114067Y-2317D01*
X-113960Y-2025D01*
X-113800Y-1775D01*
X-113613Y-1609D01*
X-113400Y-1567D01*
X-113187Y-1609D01*
X-113000Y-1775D01*
X-112840Y-2025D01*
X-112733Y-2317D01*
X-112680Y-2650D01*
Y-2984D01*
X-112733Y-3317D01*
X-112840Y-3609D01*
X-113000Y-3859D01*
X-113187Y-4025D01*
X-113400Y-4067D01*
G01X-111760Y-3734D02*
X-111547Y-3942D01*
X-111307Y-4067D01*
X-111093D01*
X-110880Y-3942D01*
X-110720Y-3734D01*
X-110640Y-3442D01*
X-110693Y-3150D01*
X-110827Y-2900D01*
X-111067Y-2734D01*
X-111387Y-2650D01*
X-111573Y-2484D01*
X-111653Y-2192D01*
X-111600Y-1900D01*
X-111467Y-1692D01*
X-111280Y-1567D01*
X-111093D01*
X-110907Y-1650D01*
X-110747Y-1859D01*
G01X-109560Y-3734D02*
X-109347Y-3942D01*
X-109107Y-4067D01*
X-108893D01*
X-108680Y-3942D01*
X-108520Y-3734D01*
X-108440Y-3442D01*
X-108493Y-3150D01*
X-108627Y-2900D01*
X-108867Y-2734D01*
X-109187Y-2650D01*
X-109373Y-2484D01*
X-109453Y-2192D01*
X-109400Y-1900D01*
X-109267Y-1692D01*
X-109080Y-1567D01*
X-108893D01*
X-108707Y-1650D01*
X-108547Y-1859D01*
G01X-105160Y-3734D02*
X-104947Y-3942D01*
X-104707Y-4067D01*
X-104493D01*
X-104280Y-3942D01*
X-104120Y-3734D01*
X-104040Y-3442D01*
X-104093Y-3150D01*
X-104227Y-2900D01*
X-104467Y-2734D01*
X-104787Y-2650D01*
X-104973Y-2484D01*
X-105053Y-2192D01*
X-105000Y-1900D01*
X-104867Y-1692D01*
X-104680Y-1567D01*
X-104493D01*
X-104307Y-1650D01*
X-104147Y-1859D01*
G01X-101867Y-4067D02*
X-102933D01*
Y-1567D01*
X-101867D01*
G01X-102293Y-2775D02*
X-102933D01*
G01X-99613Y-1775D02*
X-99773Y-1650D01*
X-99960Y-1567D01*
X-100173D01*
X-100413Y-1692D01*
X-100600Y-1900D01*
X-100733Y-2150D01*
X-100840Y-2567D01*
X-100867Y-2942D01*
X-100813Y-3317D01*
X-100733Y-3567D01*
X-100573Y-3817D01*
X-100387Y-3984D01*
X-100200Y-4067D01*
X-100013D01*
X-99827Y-3984D01*
X-99667Y-3859D01*
X-99533Y-3692D01*
G01X-98000Y-1567D02*
Y-4067D01*
G01X-98613Y-1567D02*
X-97387D01*
G01X-96120D02*
X-95480D01*
G01X-95800D02*
Y-4067D01*
G01X-96120D02*
X-95480D01*
G01X-93600D02*
X-93813Y-4025D01*
X-94000Y-3859D01*
X-94160Y-3609D01*
X-94267Y-3317D01*
X-94320Y-2984D01*
Y-2650D01*
X-94267Y-2317D01*
X-94160Y-2025D01*
X-94000Y-1775D01*
X-93813Y-1609D01*
X-93600Y-1567D01*
X-93387Y-1609D01*
X-93200Y-1775D01*
X-93040Y-2025D01*
X-92933Y-2317D01*
X-92880Y-2650D01*
Y-2984D01*
X-92933Y-3317D01*
X-93040Y-3609D01*
X-93200Y-3859D01*
X-93387Y-4025D01*
X-93600Y-4067D01*
G01X-92013D02*
Y-1567D01*
X-90787Y-4067D01*
Y-1567D01*
G01X-86413Y-1775D02*
X-86573Y-1650D01*
X-86760Y-1567D01*
X-86973D01*
X-87213Y-1692D01*
X-87400Y-1900D01*
X-87533Y-2150D01*
X-87640Y-2567D01*
X-87667Y-2942D01*
X-87613Y-3317D01*
X-87533Y-3567D01*
X-87373Y-3817D01*
X-87187Y-3984D01*
X-87000Y-4067D01*
X-86813D01*
X-86627Y-3984D01*
X-86467Y-3859D01*
X-86333Y-3692D01*
G01X-85360Y-4067D02*
Y-1567D01*
G01X-84240D02*
Y-4067D01*
G01Y-2817D02*
X-85360D01*
G01X-83267Y-4067D02*
X-82600Y-1567D01*
X-81933Y-4067D01*
G01X-82173Y-3192D02*
X-83027D01*
G01X-80933Y-4067D02*
Y-1567D01*
X-80267D01*
X-80053Y-1692D01*
X-79920Y-1859D01*
X-79867Y-2192D01*
X-79920Y-2525D01*
X-80080Y-2734D01*
X-80267Y-2859D01*
X-80933D01*
G01X-80267D02*
X-79867Y-4067D01*
G01X-78200Y-1567D02*
Y-4067D01*
G01X-78813Y-1567D02*
X-77587D01*
G01X-135100Y-4900D02*
X-133500D01*
G01X-132900D02*
X-131300D01*
G01X-130700D02*
X-129100D01*
G01X-128500D02*
X-126900D01*
G01X-126300D02*
X-124700D01*
G01X-124100D02*
X-122500D01*
G01X-121900D02*
X-120300D01*
G01X-119700D02*
X-118100D01*
G01X-117500D02*
X-115900D01*
G01X-115300D02*
X-113700D01*
G01X-113100D02*
X-111500D01*
G01X-110900D02*
X-109300D01*
G01X-108700D02*
X-107100D01*
G01X-106500D02*
X-104900D01*
G01X-104300D02*
X-102700D01*
G01X-102100D02*
X-100500D01*
G01X-99900D02*
X-98300D01*
G01X-97700D02*
X-96100D01*
G01X-95500D02*
X-93900D01*
G01X-93300D02*
X-91700D01*
G01X-91100D02*
X-89500D01*
G01X-88900D02*
X-87300D01*
G01X-86700D02*
X-85100D01*
G01X-84500D02*
X-82900D01*
G01X-82300D02*
X-80700D01*
G01X-80100D02*
X-78500D01*
G01X-77900D02*
X-76300D01*
G01X-131000Y-6067D02*
Y-8567D01*
G01X-131613Y-6067D02*
X-130387D01*
G01X-128800Y-8567D02*
X-129013Y-8525D01*
X-129200Y-8359D01*
X-129360Y-8109D01*
X-129467Y-7817D01*
X-129520Y-7484D01*
Y-7150D01*
X-129467Y-6817D01*
X-129360Y-6525D01*
X-129200Y-6275D01*
X-129013Y-6109D01*
X-128800Y-6067D01*
X-128587Y-6109D01*
X-128400Y-6275D01*
X-128240Y-6525D01*
X-128133Y-6817D01*
X-128080Y-7150D01*
Y-7484D01*
X-128133Y-7817D01*
X-128240Y-8109D01*
X-128400Y-8359D01*
X-128587Y-8525D01*
X-128800Y-8567D01*
G01X-126600Y-6067D02*
Y-8567D01*
G01X-127213Y-6067D02*
X-125987D01*
G01X-125067Y-8567D02*
X-124400Y-6067D01*
X-123733Y-8567D01*
G01X-123973Y-7692D02*
X-124827D01*
G01X-122733Y-6067D02*
Y-8567D01*
X-121667D01*
G01X-117800Y-6067D02*
Y-8567D01*
G01X-118413Y-6067D02*
X-117187D01*
G01X-116160Y-8567D02*
Y-6067D01*
G01X-115040D02*
Y-8567D01*
G01Y-7317D02*
X-116160D01*
G01X-113720Y-6067D02*
X-113080D01*
G01X-113400D02*
Y-8567D01*
G01X-113720D02*
X-113080D01*
G01X-110613Y-6275D02*
X-110773Y-6150D01*
X-110960Y-6067D01*
X-111173D01*
X-111413Y-6192D01*
X-111600Y-6400D01*
X-111733Y-6650D01*
X-111840Y-7067D01*
X-111867Y-7442D01*
X-111813Y-7817D01*
X-111733Y-8067D01*
X-111573Y-8317D01*
X-111387Y-8484D01*
X-111200Y-8567D01*
X-111013D01*
X-110827Y-8484D01*
X-110667Y-8359D01*
X-110533Y-8192D01*
G01X-109587Y-8567D02*
Y-6067D01*
G01X-108573D02*
X-109587Y-7609D01*
G01X-108413Y-8567D02*
X-109133Y-6900D01*
G01X-107413Y-8567D02*
Y-6067D01*
X-106187Y-8567D01*
Y-6067D01*
G01X-104067Y-8567D02*
X-105133D01*
Y-6067D01*
X-104067D01*
G01X-104493Y-7275D02*
X-105133D01*
G01X-102960Y-8234D02*
X-102747Y-8442D01*
X-102507Y-8567D01*
X-102293D01*
X-102080Y-8442D01*
X-101920Y-8234D01*
X-101840Y-7942D01*
X-101893Y-7650D01*
X-102027Y-7400D01*
X-102267Y-7234D01*
X-102587Y-7150D01*
X-102773Y-6984D01*
X-102853Y-6692D01*
X-102800Y-6400D01*
X-102667Y-6192D01*
X-102480Y-6067D01*
X-102293D01*
X-102107Y-6150D01*
X-101947Y-6359D01*
G01X-100760Y-8234D02*
X-100547Y-8442D01*
X-100307Y-8567D01*
X-100093D01*
X-99880Y-8442D01*
X-99720Y-8234D01*
X-99640Y-7942D01*
X-99693Y-7650D01*
X-99827Y-7400D01*
X-100067Y-7234D01*
X-100387Y-7150D01*
X-100573Y-6984D01*
X-100653Y-6692D01*
X-100600Y-6400D01*
X-100467Y-6192D01*
X-100280Y-6067D01*
X-100093D01*
X-99907Y-6150D01*
X-99747Y-6359D01*
G01X-95800Y-8567D02*
Y-6067D01*
X-96120Y-6567D01*
G01Y-8567D02*
X-95480D01*
G01X-93600Y-6067D02*
X-93813Y-6150D01*
X-93973Y-6359D01*
X-94080Y-6609D01*
X-94160Y-6942D01*
X-94187Y-7317D01*
X-94160Y-7692D01*
X-94080Y-8025D01*
X-93973Y-8275D01*
X-93813Y-8484D01*
X-93600Y-8567D01*
X-93387Y-8484D01*
X-93227Y-8275D01*
X-93120Y-8025D01*
X-93040Y-7692D01*
X-93013Y-7317D01*
X-93040Y-6942D01*
X-93120Y-6609D01*
X-93227Y-6359D01*
X-93387Y-6150D01*
X-93600Y-6067D01*
G01X-91400Y-8650D02*
X-91453Y-8609D01*
Y-8525D01*
X-91400Y-8484D01*
X-91347Y-8525D01*
Y-8609D01*
X-91400Y-8650D01*
G01X-88880Y-8567D02*
Y-6067D01*
X-89867Y-7859D01*
X-88533D01*
G01X-85493Y-8567D02*
Y-6067D01*
X-84800Y-8150D01*
X-84107Y-6067D01*
Y-8567D01*
G01X-82920Y-6067D02*
X-82280D01*
G01X-82600D02*
Y-8567D01*
G01X-82920D02*
X-82280D01*
G01X-80933Y-6067D02*
Y-8567D01*
X-79867D01*
G01X-108200Y208279D02*
X-110700D01*
X-110200Y207959D01*
G01X-108200D02*
Y208599D01*
G01X-109033Y210132D02*
Y210826D01*
G01X-110283Y212172D02*
X-110533Y212332D01*
X-110658Y212519D01*
X-110700Y212732D01*
X-110617Y212999D01*
X-110408Y213186D01*
X-110158Y213239D01*
X-109908Y213212D01*
X-109700Y213106D01*
X-109283Y212572D01*
X-108992Y212332D01*
X-108575Y212172D01*
X-108200Y212119D01*
Y213239D01*
G01X-73233Y19319D02*
Y16819D01*
X-72167D01*
G01X-71007Y18902D02*
X-70847Y19152D01*
X-70660Y19277D01*
X-70447Y19319D01*
X-70180Y19236D01*
X-69993Y19027D01*
X-69940Y18777D01*
X-69967Y18527D01*
X-70073Y18319D01*
X-70607Y17902D01*
X-70847Y17611D01*
X-71007Y17194D01*
X-71060Y16819D01*
X-69940D01*
G01X-65887Y18152D02*
X-65780Y18277D01*
X-65700Y18486D01*
X-65647Y18777D01*
X-65700Y19027D01*
X-65807Y19194D01*
X-65993Y19319D01*
X-66713D01*
Y16819D01*
X-65833D01*
X-65647Y16986D01*
X-65540Y17236D01*
X-65487Y17527D01*
X-65540Y17819D01*
X-65700Y18069D01*
X-65887Y18152D01*
X-66713D01*
G01X-63900Y16819D02*
X-64113Y16861D01*
X-64300Y17027D01*
X-64460Y17277D01*
X-64567Y17569D01*
X-64620Y17902D01*
Y18236D01*
X-64567Y18569D01*
X-64460Y18861D01*
X-64300Y19111D01*
X-64113Y19277D01*
X-63900Y19319D01*
X-63687Y19277D01*
X-63500Y19111D01*
X-63340Y18861D01*
X-63233Y18569D01*
X-63180Y18236D01*
Y17902D01*
X-63233Y17569D01*
X-63340Y17277D01*
X-63500Y17027D01*
X-63687Y16861D01*
X-63900Y16819D01*
G01X-61700Y19319D02*
Y16819D01*
G01X-62313Y19319D02*
X-61087D01*
G01X-59500D02*
Y16819D01*
G01X-60113Y19319D02*
X-58887D01*
G01X-57300Y16819D02*
X-57513Y16861D01*
X-57700Y17027D01*
X-57860Y17277D01*
X-57967Y17569D01*
X-58020Y17902D01*
Y18236D01*
X-57967Y18569D01*
X-57860Y18861D01*
X-57700Y19111D01*
X-57513Y19277D01*
X-57300Y19319D01*
X-57087Y19277D01*
X-56900Y19111D01*
X-56740Y18861D01*
X-56633Y18569D01*
X-56580Y18236D01*
Y17902D01*
X-56633Y17569D01*
X-56740Y17277D01*
X-56900Y17027D01*
X-57087Y16861D01*
X-57300Y16819D01*
G01X-55793D02*
Y19319D01*
X-55100Y17236D01*
X-54407Y19319D01*
Y16819D01*
G01X-50113Y19111D02*
X-50273Y19236D01*
X-50460Y19319D01*
X-50673D01*
X-50913Y19194D01*
X-51100Y18986D01*
X-51233Y18736D01*
X-51340Y18319D01*
X-51367Y17944D01*
X-51313Y17569D01*
X-51233Y17319D01*
X-51073Y17069D01*
X-50887Y16902D01*
X-50700Y16819D01*
X-50513D01*
X-50327Y16902D01*
X-50167Y17027D01*
X-50033Y17194D01*
G01X-48500Y16819D02*
X-48713Y16861D01*
X-48900Y17027D01*
X-49060Y17277D01*
X-49167Y17569D01*
X-49220Y17902D01*
Y18236D01*
X-49167Y18569D01*
X-49060Y18861D01*
X-48900Y19111D01*
X-48713Y19277D01*
X-48500Y19319D01*
X-48287Y19277D01*
X-48100Y19111D01*
X-47940Y18861D01*
X-47833Y18569D01*
X-47780Y18236D01*
Y17902D01*
X-47833Y17569D01*
X-47940Y17277D01*
X-48100Y17027D01*
X-48287Y16861D01*
X-48500Y16819D01*
G01X-46913D02*
Y19319D01*
X-45687Y16819D01*
Y19319D01*
G01X-44687Y16819D02*
Y19319D01*
X-44153D01*
X-43940Y19194D01*
X-43780Y19027D01*
X-43647Y18777D01*
X-43540Y18486D01*
X-43513Y18069D01*
X-43540Y17652D01*
X-43647Y17361D01*
X-43780Y17111D01*
X-43940Y16944D01*
X-44153Y16819D01*
X-44687D01*
G01X-42487Y19319D02*
Y17527D01*
X-42380Y17152D01*
X-42167Y16902D01*
X-41900Y16819D01*
X-41633Y16902D01*
X-41420Y17152D01*
X-41313Y17527D01*
Y19319D01*
G01X-39113Y19111D02*
X-39273Y19236D01*
X-39460Y19319D01*
X-39673D01*
X-39913Y19194D01*
X-40100Y18986D01*
X-40233Y18736D01*
X-40340Y18319D01*
X-40367Y17944D01*
X-40313Y17569D01*
X-40233Y17319D01*
X-40073Y17069D01*
X-39887Y16902D01*
X-39700Y16819D01*
X-39513D01*
X-39327Y16902D01*
X-39167Y17027D01*
X-39033Y17194D01*
G01X-37500Y19319D02*
Y16819D01*
G01X-38113Y19319D02*
X-36887D01*
G01X-35300Y16819D02*
X-35513Y16861D01*
X-35700Y17027D01*
X-35860Y17277D01*
X-35967Y17569D01*
X-36020Y17902D01*
Y18236D01*
X-35967Y18569D01*
X-35860Y18861D01*
X-35700Y19111D01*
X-35513Y19277D01*
X-35300Y19319D01*
X-35087Y19277D01*
X-34900Y19111D01*
X-34740Y18861D01*
X-34633Y18569D01*
X-34580Y18236D01*
Y17902D01*
X-34633Y17569D01*
X-34740Y17277D01*
X-34900Y17027D01*
X-35087Y16861D01*
X-35300Y16819D01*
G01X-33633D02*
Y19319D01*
X-32967D01*
X-32753Y19194D01*
X-32620Y19027D01*
X-32567Y18694D01*
X-32620Y18361D01*
X-32780Y18152D01*
X-32967Y18027D01*
X-33633D01*
G01X-32967D02*
X-32567Y16819D01*
G01X-68887Y1883D02*
X-67713Y3716D01*
G01X-68300Y4049D02*
Y1549D01*
G01X-67713Y1883D02*
X-68887Y3716D01*
G01X-69100Y2799D02*
X-67500D01*
G01X-62260Y2299D02*
X-62047Y2091D01*
X-61807Y1966D01*
X-61593D01*
X-61380Y2091D01*
X-61220Y2299D01*
X-61140Y2591D01*
X-61193Y2883D01*
X-61327Y3133D01*
X-61567Y3299D01*
X-61887Y3383D01*
X-62073Y3549D01*
X-62153Y3841D01*
X-62100Y4133D01*
X-61967Y4341D01*
X-61780Y4466D01*
X-61593D01*
X-61407Y4383D01*
X-61247Y4174D01*
G01X-60087Y4466D02*
Y2674D01*
X-59980Y2299D01*
X-59767Y2049D01*
X-59500Y1966D01*
X-59233Y2049D01*
X-59020Y2299D01*
X-58913Y2674D01*
Y4466D01*
G01X-57833Y1966D02*
Y4466D01*
X-57167D01*
X-56953Y4341D01*
X-56820Y4174D01*
X-56767Y3841D01*
X-56820Y3508D01*
X-56980Y3299D01*
X-57167Y3174D01*
X-57833D01*
G01X-57167D02*
X-56767Y1966D01*
G01X-55607D02*
Y4466D01*
X-54593D01*
G01X-54967Y3258D02*
X-55607D01*
G01X-53567Y1966D02*
X-52900Y4466D01*
X-52233Y1966D01*
G01X-52473Y2841D02*
X-53327D01*
G01X-50113Y4258D02*
X-50273Y4383D01*
X-50460Y4466D01*
X-50673D01*
X-50913Y4341D01*
X-51100Y4133D01*
X-51233Y3883D01*
X-51340Y3466D01*
X-51367Y3091D01*
X-51313Y2716D01*
X-51233Y2466D01*
X-51073Y2216D01*
X-50887Y2049D01*
X-50700Y1966D01*
X-50513D01*
X-50327Y2049D01*
X-50167Y2174D01*
X-50033Y2341D01*
G01X-47967Y1966D02*
X-49033D01*
Y4466D01*
X-47967D01*
G01X-48393Y3258D02*
X-49033D01*
G01X-68887Y105056D02*
X-67713Y106889D01*
G01X-68300Y107222D02*
Y104722D01*
G01X-67713Y105056D02*
X-68887Y106889D01*
G01X-69100Y105972D02*
X-67500D01*
G01X-62287Y105139D02*
Y107639D01*
X-61753D01*
X-61540Y107514D01*
X-61380Y107347D01*
X-61247Y107097D01*
X-61140Y106806D01*
X-61113Y106389D01*
X-61140Y105972D01*
X-61247Y105681D01*
X-61380Y105431D01*
X-61540Y105264D01*
X-61753Y105139D01*
X-62287D01*
G01X-59820Y107639D02*
X-59180D01*
G01X-59500D02*
Y105139D01*
G01X-59820D02*
X-59180D01*
G01X-56767D02*
X-57833D01*
Y107639D01*
X-56767D01*
G01X-57193Y106431D02*
X-57833D01*
G01X-55633Y107639D02*
Y105139D01*
X-54567D01*
G01X-52367D02*
X-53433D01*
Y107639D01*
X-52367D01*
G01X-52793Y106431D02*
X-53433D01*
G01X-50113Y107431D02*
X-50273Y107556D01*
X-50460Y107639D01*
X-50673D01*
X-50913Y107514D01*
X-51100Y107306D01*
X-51233Y107056D01*
X-51340Y106639D01*
X-51367Y106264D01*
X-51313Y105889D01*
X-51233Y105639D01*
X-51073Y105389D01*
X-50887Y105222D01*
X-50700Y105139D01*
X-50513D01*
X-50327Y105222D01*
X-50167Y105347D01*
X-50033Y105514D01*
G01X-48500Y107639D02*
Y105139D01*
G01X-49113Y107639D02*
X-47887D01*
G01X-46833Y105139D02*
Y107639D01*
X-46167D01*
X-45953Y107514D01*
X-45820Y107347D01*
X-45767Y107014D01*
X-45820Y106681D01*
X-45980Y106472D01*
X-46167Y106347D01*
X-46833D01*
G01X-46167D02*
X-45767Y105139D01*
G01X-44420Y107639D02*
X-43780D01*
G01X-44100D02*
Y105139D01*
G01X-44420D02*
X-43780D01*
G01X-41313Y107431D02*
X-41473Y107556D01*
X-41660Y107639D01*
X-41873D01*
X-42113Y107514D01*
X-42300Y107306D01*
X-42433Y107056D01*
X-42540Y106639D01*
X-42567Y106264D01*
X-42513Y105889D01*
X-42433Y105639D01*
X-42273Y105389D01*
X-42087Y105222D01*
X-41900Y105139D01*
X-41713D01*
X-41527Y105222D01*
X-41367Y105347D01*
X-41233Y105514D01*
G01X-73233Y195959D02*
Y193459D01*
X-72167D01*
G01X-70500D02*
Y195959D01*
X-70820Y195459D01*
G01Y193459D02*
X-70180D01*
G01X-66100Y195959D02*
Y193459D01*
G01X-66713Y195959D02*
X-65487D01*
G01X-63900Y193459D02*
X-64113Y193501D01*
X-64300Y193667D01*
X-64460Y193917D01*
X-64567Y194209D01*
X-64620Y194542D01*
Y194876D01*
X-64567Y195209D01*
X-64460Y195501D01*
X-64300Y195751D01*
X-64113Y195917D01*
X-63900Y195959D01*
X-63687Y195917D01*
X-63500Y195751D01*
X-63340Y195501D01*
X-63233Y195209D01*
X-63180Y194876D01*
Y194542D01*
X-63233Y194209D01*
X-63340Y193917D01*
X-63500Y193667D01*
X-63687Y193501D01*
X-63900Y193459D01*
G01X-62233D02*
Y195959D01*
X-61593D01*
X-61380Y195834D01*
X-61220Y195542D01*
X-61167Y195209D01*
X-61220Y194876D01*
X-61353Y194626D01*
X-61593Y194501D01*
X-62233D01*
G01X-56713Y195751D02*
X-56873Y195876D01*
X-57060Y195959D01*
X-57273D01*
X-57513Y195834D01*
X-57700Y195626D01*
X-57833Y195376D01*
X-57940Y194959D01*
X-57967Y194584D01*
X-57913Y194209D01*
X-57833Y193959D01*
X-57673Y193709D01*
X-57487Y193542D01*
X-57300Y193459D01*
X-57113D01*
X-56927Y193542D01*
X-56767Y193667D01*
X-56633Y193834D01*
G01X-55100Y193459D02*
X-55313Y193501D01*
X-55500Y193667D01*
X-55660Y193917D01*
X-55767Y194209D01*
X-55820Y194542D01*
Y194876D01*
X-55767Y195209D01*
X-55660Y195501D01*
X-55500Y195751D01*
X-55313Y195917D01*
X-55100Y195959D01*
X-54887Y195917D01*
X-54700Y195751D01*
X-54540Y195501D01*
X-54433Y195209D01*
X-54380Y194876D01*
Y194542D01*
X-54433Y194209D01*
X-54540Y193917D01*
X-54700Y193667D01*
X-54887Y193501D01*
X-55100Y193459D01*
G01X-53513D02*
Y195959D01*
X-52287Y193459D01*
Y195959D01*
G01X-51287Y193459D02*
Y195959D01*
X-50753D01*
X-50540Y195834D01*
X-50380Y195667D01*
X-50247Y195417D01*
X-50140Y195126D01*
X-50113Y194709D01*
X-50140Y194292D01*
X-50247Y194001D01*
X-50380Y193751D01*
X-50540Y193584D01*
X-50753Y193459D01*
X-51287D01*
G01X-49087Y195959D02*
Y194167D01*
X-48980Y193792D01*
X-48767Y193542D01*
X-48500Y193459D01*
X-48233Y193542D01*
X-48020Y193792D01*
X-47913Y194167D01*
Y195959D01*
G01X-45713Y195751D02*
X-45873Y195876D01*
X-46060Y195959D01*
X-46273D01*
X-46513Y195834D01*
X-46700Y195626D01*
X-46833Y195376D01*
X-46940Y194959D01*
X-46967Y194584D01*
X-46913Y194209D01*
X-46833Y193959D01*
X-46673Y193709D01*
X-46487Y193542D01*
X-46300Y193459D01*
X-46113D01*
X-45927Y193542D01*
X-45767Y193667D01*
X-45633Y193834D01*
G01X-44100Y195959D02*
Y193459D01*
G01X-44713Y195959D02*
X-43487D01*
G01X-41900Y193459D02*
X-42113Y193501D01*
X-42300Y193667D01*
X-42460Y193917D01*
X-42567Y194209D01*
X-42620Y194542D01*
Y194876D01*
X-42567Y195209D01*
X-42460Y195501D01*
X-42300Y195751D01*
X-42113Y195917D01*
X-41900Y195959D01*
X-41687Y195917D01*
X-41500Y195751D01*
X-41340Y195501D01*
X-41233Y195209D01*
X-41180Y194876D01*
Y194542D01*
X-41233Y194209D01*
X-41340Y193917D01*
X-41500Y193667D01*
X-41687Y193501D01*
X-41900Y193459D01*
G01X-40233D02*
Y195959D01*
X-39567D01*
X-39353Y195834D01*
X-39220Y195667D01*
X-39167Y195334D01*
X-39220Y195001D01*
X-39380Y194792D01*
X-39567Y194667D01*
X-40233D01*
G01X-39567D02*
X-39167Y193459D01*
G01X-68887Y205729D02*
X-67713Y207562D01*
G01X-68300Y207895D02*
Y205395D01*
G01X-67713Y205729D02*
X-68887Y207562D01*
G01X-69100Y206645D02*
X-67500D01*
G01X-62260Y206145D02*
X-62047Y205937D01*
X-61807Y205812D01*
X-61593D01*
X-61380Y205937D01*
X-61220Y206145D01*
X-61140Y206437D01*
X-61193Y206729D01*
X-61327Y206979D01*
X-61567Y207145D01*
X-61887Y207229D01*
X-62073Y207395D01*
X-62153Y207687D01*
X-62100Y207979D01*
X-61967Y208187D01*
X-61780Y208312D01*
X-61593D01*
X-61407Y208229D01*
X-61247Y208020D01*
G01X-60087Y208312D02*
Y206520D01*
X-59980Y206145D01*
X-59767Y205895D01*
X-59500Y205812D01*
X-59233Y205895D01*
X-59020Y206145D01*
X-58913Y206520D01*
Y208312D01*
G01X-57833Y205812D02*
Y208312D01*
X-57167D01*
X-56953Y208187D01*
X-56820Y208020D01*
X-56767Y207687D01*
X-56820Y207354D01*
X-56980Y207145D01*
X-57167Y207020D01*
X-57833D01*
G01X-57167D02*
X-56767Y205812D01*
G01X-55607D02*
Y208312D01*
X-54593D01*
G01X-54967Y207104D02*
X-55607D01*
G01X-53567Y205812D02*
X-52900Y208312D01*
X-52233Y205812D01*
G01X-52473Y206687D02*
X-53327D01*
G01X-50113Y208104D02*
X-50273Y208229D01*
X-50460Y208312D01*
X-50673D01*
X-50913Y208187D01*
X-51100Y207979D01*
X-51233Y207729D01*
X-51340Y207312D01*
X-51367Y206937D01*
X-51313Y206562D01*
X-51233Y206312D01*
X-51073Y206062D01*
X-50887Y205895D01*
X-50700Y205812D01*
X-50513D01*
X-50327Y205895D01*
X-50167Y206020D01*
X-50033Y206187D01*
G01X-47967Y205812D02*
X-49033D01*
Y208312D01*
X-47967D01*
G01X-48393Y207104D02*
X-49033D01*
G01X25693Y225250D02*
Y227750D01*
X26707D01*
G01X26333Y226542D02*
X25693D01*
G01X28080Y227750D02*
X28720D01*
G01X28400D02*
Y225250D01*
G01X28080D02*
X28720D01*
G01X30760Y226500D02*
X31293D01*
Y225750D01*
X31133Y225500D01*
X30947Y225333D01*
X30680Y225250D01*
X30413Y225333D01*
X30227Y225500D01*
X30067Y225750D01*
X29960Y226042D01*
X29907Y226375D01*
Y226667D01*
X29960Y226917D01*
X30067Y227208D01*
X30227Y227458D01*
X30387Y227625D01*
X30600Y227750D01*
X30787D01*
X31000Y227667D01*
X31160Y227500D01*
G01X32213Y227750D02*
Y225958D01*
X32320Y225583D01*
X32533Y225333D01*
X32800Y225250D01*
X33067Y225333D01*
X33280Y225583D01*
X33387Y225958D01*
Y227750D01*
G01X34467Y225250D02*
Y227750D01*
X35133D01*
X35347Y227625D01*
X35480Y227458D01*
X35533Y227125D01*
X35480Y226792D01*
X35320Y226583D01*
X35133Y226458D01*
X34467D01*
G01X35133D02*
X35533Y225250D01*
G01X37733D02*
X36667D01*
Y227750D01*
X37733D01*
G01X37307Y226542D02*
X36667D01*
G01X43893Y225250D02*
Y227750D01*
X44907D01*
G01X44533Y226542D02*
X43893D01*
G01X46280Y227750D02*
X46920D01*
G01X46600D02*
Y225250D01*
G01X46280D02*
X46920D01*
G01X48187D02*
Y227750D01*
X49413Y225250D01*
Y227750D01*
G01X50680D02*
X51320D01*
G01X51000D02*
Y225250D01*
G01X50680D02*
X51320D01*
G01X52640Y225583D02*
X52853Y225375D01*
X53093Y225250D01*
X53307D01*
X53520Y225375D01*
X53680Y225583D01*
X53760Y225875D01*
X53707Y226167D01*
X53573Y226417D01*
X53333Y226583D01*
X53013Y226667D01*
X52827Y226833D01*
X52747Y227125D01*
X52800Y227417D01*
X52933Y227625D01*
X53120Y227750D01*
X53307D01*
X53493Y227667D01*
X53653Y227458D01*
G01X54840Y225250D02*
Y227750D01*
G01X55960D02*
Y225250D01*
G01Y226500D02*
X54840D01*
G01X58133Y225250D02*
X57067D01*
Y227750D01*
X58133D01*
G01X57707Y226542D02*
X57067D01*
G01X59213Y225250D02*
Y227750D01*
X59747D01*
X59960Y227625D01*
X60120Y227458D01*
X60253Y227208D01*
X60360Y226917D01*
X60387Y226500D01*
X60360Y226083D01*
X60253Y225792D01*
X60120Y225542D01*
X59960Y225375D01*
X59747Y225250D01*
X59213D01*
G01X61200Y224417D02*
X62800D01*
G01X63640Y225583D02*
X63853Y225375D01*
X64093Y225250D01*
X64307D01*
X64520Y225375D01*
X64680Y225583D01*
X64760Y225875D01*
X64707Y226167D01*
X64573Y226417D01*
X64333Y226583D01*
X64013Y226667D01*
X63827Y226833D01*
X63747Y227125D01*
X63800Y227417D01*
X63933Y227625D01*
X64120Y227750D01*
X64307D01*
X64493Y227667D01*
X64653Y227458D01*
G01X66080Y227750D02*
X66720D01*
G01X66400D02*
Y225250D01*
G01X66080D02*
X66720D01*
G01X68093Y227750D02*
X69107D01*
X68093Y225250D01*
X69107D01*
G01X71333D02*
X70267D01*
Y227750D01*
X71333D01*
G01X70907Y226542D02*
X70267D01*
G01X53200Y219000D02*
Y221500D01*
X52880Y221000D01*
G01Y219000D02*
X53520D01*
G01X54813Y219375D02*
X54973Y219167D01*
X55160Y219042D01*
X55400Y219000D01*
X55640Y219083D01*
X55827Y219250D01*
X55960Y219542D01*
X55987Y219875D01*
X55933Y220208D01*
X55800Y220417D01*
X55613Y220583D01*
X55427Y220625D01*
X55240Y220583D01*
X55000Y220417D01*
X55080Y221500D01*
X55800D01*
G01X57600Y218917D02*
X57547Y218958D01*
Y219042D01*
X57600Y219083D01*
X57653Y219042D01*
Y218958D01*
X57600Y218917D01*
G01X59747Y219000D02*
X59800Y219542D01*
X59880Y220000D01*
X59987Y220417D01*
X60120Y220875D01*
X60333Y221500D01*
X59267D01*
G01X61413Y219375D02*
X61573Y219167D01*
X61760Y219042D01*
X62000Y219000D01*
X62240Y219083D01*
X62427Y219250D01*
X62560Y219542D01*
X62587Y219875D01*
X62533Y220208D01*
X62400Y220417D01*
X62213Y220583D01*
X62027Y220625D01*
X61840Y220583D01*
X61600Y220417D01*
X61680Y221500D01*
X62400D01*
G01X39713Y255250D02*
Y257750D01*
X40247D01*
X40460Y257625D01*
X40620Y257458D01*
X40753Y257208D01*
X40860Y256917D01*
X40887Y256500D01*
X40860Y256083D01*
X40753Y255792D01*
X40620Y255542D01*
X40460Y255375D01*
X40247Y255250D01*
X39713D01*
G01X41967D02*
Y257750D01*
X42633D01*
X42847Y257625D01*
X42980Y257458D01*
X43033Y257125D01*
X42980Y256792D01*
X42820Y256583D01*
X42633Y256458D01*
X41967D01*
G01X42633D02*
X43033Y255250D01*
G01X44380Y257750D02*
X45020D01*
G01X44700D02*
Y255250D01*
G01X44380D02*
X45020D01*
G01X46367Y257750D02*
Y255250D01*
X47433D01*
G01X48567Y257750D02*
Y255250D01*
X49633D01*
G01X54087Y257542D02*
X53927Y257667D01*
X53740Y257750D01*
X53527D01*
X53287Y257625D01*
X53100Y257417D01*
X52967Y257167D01*
X52860Y256750D01*
X52833Y256375D01*
X52887Y256000D01*
X52967Y255750D01*
X53127Y255500D01*
X53313Y255333D01*
X53500Y255250D01*
X53687D01*
X53873Y255333D01*
X54033Y255458D01*
X54167Y255625D01*
G01X55140Y255250D02*
Y257750D01*
G01X56260D02*
Y255250D01*
G01Y256500D02*
X55140D01*
G01X57233Y255250D02*
X57900Y257750D01*
X58567Y255250D01*
G01X58327Y256125D02*
X57473D01*
G01X59567Y255250D02*
Y257750D01*
X60233D01*
X60447Y257625D01*
X60580Y257458D01*
X60633Y257125D01*
X60580Y256792D01*
X60420Y256583D01*
X60233Y256458D01*
X59567D01*
G01X60233D02*
X60633Y255250D01*
G01X62300Y257750D02*
Y255250D01*
G01X61687Y257750D02*
X62913D01*
G01X64500Y255167D02*
X64447Y255208D01*
Y255292D01*
X64500Y255333D01*
X64553Y255292D01*
Y255208D01*
X64500Y255167D01*
G01Y256292D02*
X64447Y256333D01*
Y256417D01*
X64500Y256458D01*
X64553Y256417D01*
Y256333D01*
X64500Y256292D01*
G01X68900Y257750D02*
Y255250D01*
G01X68287Y257750D02*
X69513D01*
G01X71100Y255250D02*
X70887Y255292D01*
X70700Y255458D01*
X70540Y255708D01*
X70433Y256000D01*
X70380Y256333D01*
Y256667D01*
X70433Y257000D01*
X70540Y257292D01*
X70700Y257542D01*
X70887Y257708D01*
X71100Y257750D01*
X71313Y257708D01*
X71500Y257542D01*
X71660Y257292D01*
X71767Y257000D01*
X71820Y256667D01*
Y256333D01*
X71767Y256000D01*
X71660Y255708D01*
X71500Y255458D01*
X71313Y255292D01*
X71100Y255250D01*
G01X72767D02*
Y257750D01*
X73407D01*
X73620Y257625D01*
X73780Y257333D01*
X73833Y257000D01*
X73780Y256667D01*
X73647Y256417D01*
X73407Y256292D01*
X72767D01*
G01X77700Y257750D02*
Y255250D01*
G01X77327Y256917D02*
X78073D01*
G01X79900Y255250D02*
X79740Y255292D01*
X79580Y255458D01*
X79473Y255750D01*
X79420Y256083D01*
X79473Y256417D01*
X79580Y256708D01*
X79740Y256875D01*
X79900Y256917D01*
X80060Y256875D01*
X80220Y256708D01*
X80327Y256417D01*
X80353Y256083D01*
X80327Y255750D01*
X80220Y255458D01*
X80060Y255292D01*
X79900Y255250D01*
G01X84513Y256583D02*
X84620Y256708D01*
X84700Y256917D01*
X84753Y257208D01*
X84700Y257458D01*
X84593Y257625D01*
X84407Y257750D01*
X83687D01*
Y255250D01*
X84567D01*
X84753Y255417D01*
X84860Y255667D01*
X84913Y255958D01*
X84860Y256250D01*
X84700Y256500D01*
X84513Y256583D01*
X83687D01*
G01X86500Y255250D02*
X86287Y255292D01*
X86100Y255458D01*
X85940Y255708D01*
X85833Y256000D01*
X85780Y256333D01*
Y256667D01*
X85833Y257000D01*
X85940Y257292D01*
X86100Y257542D01*
X86287Y257708D01*
X86500Y257750D01*
X86713Y257708D01*
X86900Y257542D01*
X87060Y257292D01*
X87167Y257000D01*
X87220Y256667D01*
Y256333D01*
X87167Y256000D01*
X87060Y255708D01*
X86900Y255458D01*
X86713Y255292D01*
X86500Y255250D01*
G01X88700Y257750D02*
Y255250D01*
G01X88087Y257750D02*
X89313D01*
G01X90900D02*
Y255250D01*
G01X90287Y257750D02*
X91513D01*
G01X93100Y255250D02*
X92887Y255292D01*
X92700Y255458D01*
X92540Y255708D01*
X92433Y256000D01*
X92380Y256333D01*
Y256667D01*
X92433Y257000D01*
X92540Y257292D01*
X92700Y257542D01*
X92887Y257708D01*
X93100Y257750D01*
X93313Y257708D01*
X93500Y257542D01*
X93660Y257292D01*
X93767Y257000D01*
X93820Y256667D01*
Y256333D01*
X93767Y256000D01*
X93660Y255708D01*
X93500Y255458D01*
X93313Y255292D01*
X93100Y255250D01*
G01X94607D02*
Y257750D01*
X95300Y255667D01*
X95993Y257750D01*
Y255250D01*
G01X45133Y230250D02*
X45800Y232750D01*
X46467Y230250D01*
G01X46227Y231125D02*
X45373D01*
G01X47467Y232750D02*
Y230250D01*
X48533D01*
G01X49667Y232750D02*
Y230250D01*
X50733D01*
G01X54013Y232750D02*
Y230958D01*
X54120Y230583D01*
X54333Y230333D01*
X54600Y230250D01*
X54867Y230333D01*
X55080Y230583D01*
X55187Y230958D01*
Y232750D01*
G01X56187Y230250D02*
Y232750D01*
X57413Y230250D01*
Y232750D01*
G01X58680D02*
X59320D01*
G01X59000D02*
Y230250D01*
G01X58680D02*
X59320D01*
G01X61200Y232750D02*
Y230250D01*
G01X60587Y232750D02*
X61813D01*
G01X62840Y230583D02*
X63053Y230375D01*
X63293Y230250D01*
X63507D01*
X63720Y230375D01*
X63880Y230583D01*
X63960Y230875D01*
X63907Y231167D01*
X63773Y231417D01*
X63533Y231583D01*
X63213Y231667D01*
X63027Y231833D01*
X62947Y232125D01*
X63000Y232417D01*
X63133Y232625D01*
X63320Y232750D01*
X63507D01*
X63693Y232667D01*
X63853Y232458D01*
G01X67133Y230250D02*
X67800Y232750D01*
X68467Y230250D01*
G01X68227Y231125D02*
X67373D01*
G01X69467Y230250D02*
Y232750D01*
X70133D01*
X70347Y232625D01*
X70480Y232458D01*
X70533Y232125D01*
X70480Y231792D01*
X70320Y231583D01*
X70133Y231458D01*
X69467D01*
G01X70133D02*
X70533Y230250D01*
G01X72733D02*
X71667D01*
Y232750D01*
X72733D01*
G01X72307Y231542D02*
X71667D01*
G01X76280Y232750D02*
X76920D01*
G01X76600D02*
Y230250D01*
G01X76280D02*
X76920D01*
G01X78187D02*
Y232750D01*
X79413Y230250D01*
Y232750D01*
G01X82507Y230250D02*
Y232750D01*
X83200Y230667D01*
X83893Y232750D01*
Y230250D01*
G01X85080Y232750D02*
X85720D01*
G01X85400D02*
Y230250D01*
G01X85080D02*
X85720D01*
G01X87067Y232750D02*
Y230250D01*
X88133D01*
G01X89240Y230583D02*
X89453Y230375D01*
X89693Y230250D01*
X89907D01*
X90120Y230375D01*
X90280Y230583D01*
X90360Y230875D01*
X90307Y231167D01*
X90173Y231417D01*
X89933Y231583D01*
X89613Y231667D01*
X89427Y231833D01*
X89347Y232125D01*
X89400Y232417D01*
X89533Y232625D01*
X89720Y232750D01*
X89907D01*
X90093Y232667D01*
X90253Y232458D01*
G01X83000Y169550D02*
Y172050D01*
X82680Y171550D01*
G01Y169550D02*
X83320D01*
G01X85200Y169467D02*
X85147Y169508D01*
Y169592D01*
X85200Y169633D01*
X85253Y169592D01*
Y169508D01*
X85200Y169467D01*
G01X86893Y170592D02*
X87080Y170883D01*
X87240Y171050D01*
X87453Y171133D01*
X87640Y171050D01*
X87773Y170883D01*
X87880Y170633D01*
X87907Y170342D01*
X87880Y170092D01*
X87773Y169842D01*
X87613Y169633D01*
X87427Y169550D01*
X87213Y169633D01*
X87027Y169883D01*
X86920Y170258D01*
X86893Y170675D01*
X86947Y171217D01*
X87027Y171508D01*
X87160Y171800D01*
X87347Y172008D01*
X87533Y172050D01*
X87720Y171967D01*
X87853Y171758D01*
G01X89600Y172050D02*
X89387Y171967D01*
X89227Y171758D01*
X89120Y171508D01*
X89040Y171175D01*
X89013Y170800D01*
X89040Y170425D01*
X89120Y170092D01*
X89227Y169842D01*
X89387Y169633D01*
X89600Y169550D01*
X89813Y169633D01*
X89973Y169842D01*
X90080Y170092D01*
X90160Y170425D01*
X90187Y170800D01*
X90160Y171175D01*
X90080Y171508D01*
X89973Y171758D01*
X89813Y171967D01*
X89600Y172050D01*
G01X80767Y225250D02*
Y227750D01*
X81407D01*
X81620Y227625D01*
X81780Y227333D01*
X81833Y227000D01*
X81780Y226667D01*
X81647Y226417D01*
X81407Y226292D01*
X80767D01*
G01X82967Y227750D02*
Y225250D01*
X84033D01*
G01X85033D02*
X85700Y227750D01*
X86367Y225250D01*
G01X86127Y226125D02*
X85273D01*
G01X87900Y227750D02*
Y225250D01*
G01X87287Y227750D02*
X88513D01*
G01X90633Y225250D02*
X89567D01*
Y227750D01*
X90633D01*
G01X90207Y226542D02*
X89567D01*
G01X91713Y225250D02*
Y227750D01*
X92247D01*
X92460Y227625D01*
X92620Y227458D01*
X92753Y227208D01*
X92860Y226917D01*
X92887Y226500D01*
X92860Y226083D01*
X92753Y225792D01*
X92620Y225542D01*
X92460Y225375D01*
X92247Y225250D01*
X91713D01*
G01X80767Y219000D02*
Y221500D01*
X81407D01*
X81620Y221375D01*
X81780Y221083D01*
X81833Y220750D01*
X81780Y220417D01*
X81647Y220167D01*
X81407Y220042D01*
X80767D01*
G01X82967Y221500D02*
Y219000D01*
X84033D01*
G01X85033D02*
X85700Y221500D01*
X86367Y219000D01*
G01X86127Y219875D02*
X85273D01*
G01X87900Y221500D02*
Y219000D01*
G01X87287Y221500D02*
X88513D01*
G01X90633Y219000D02*
X89567D01*
Y221500D01*
X90633D01*
G01X90207Y220292D02*
X89567D01*
G01X91713Y219000D02*
Y221500D01*
X92247D01*
X92460Y221375D01*
X92620Y221208D01*
X92753Y220958D01*
X92860Y220667D01*
X92887Y220250D01*
X92860Y219833D01*
X92753Y219542D01*
X92620Y219292D01*
X92460Y219125D01*
X92247Y219000D01*
X91713D01*
G01X70600Y214000D02*
Y211500D01*
G01X69987Y214000D02*
X71213D01*
G01X72800Y211500D02*
X72587Y211542D01*
X72400Y211708D01*
X72240Y211958D01*
X72133Y212250D01*
X72080Y212583D01*
Y212917D01*
X72133Y213250D01*
X72240Y213542D01*
X72400Y213792D01*
X72587Y213958D01*
X72800Y214000D01*
X73013Y213958D01*
X73200Y213792D01*
X73360Y213542D01*
X73467Y213250D01*
X73520Y212917D01*
Y212583D01*
X73467Y212250D01*
X73360Y211958D01*
X73200Y211708D01*
X73013Y211542D01*
X72800Y211500D01*
G01X75000Y214000D02*
Y211500D01*
G01X74387Y214000D02*
X75613D01*
G01X76533Y211500D02*
X77200Y214000D01*
X77867Y211500D01*
G01X77627Y212375D02*
X76773D01*
G01X78867Y214000D02*
Y211500D01*
X79933D01*
G01X83240D02*
Y214000D01*
G01X84360D02*
Y211500D01*
G01Y212750D02*
X83240D01*
G01X86000Y211500D02*
X85787Y211542D01*
X85600Y211708D01*
X85440Y211958D01*
X85333Y212250D01*
X85280Y212583D01*
Y212917D01*
X85333Y213250D01*
X85440Y213542D01*
X85600Y213792D01*
X85787Y213958D01*
X86000Y214000D01*
X86213Y213958D01*
X86400Y213792D01*
X86560Y213542D01*
X86667Y213250D01*
X86720Y212917D01*
Y212583D01*
X86667Y212250D01*
X86560Y211958D01*
X86400Y211708D01*
X86213Y211542D01*
X86000Y211500D01*
G01X87667Y214000D02*
Y211500D01*
X88733D01*
G01X90933D02*
X89867D01*
Y214000D01*
X90933D01*
G01X90507Y212792D02*
X89867D01*
G01X92040Y211833D02*
X92253Y211625D01*
X92493Y211500D01*
X92707D01*
X92920Y211625D01*
X93080Y211833D01*
X93160Y212125D01*
X93107Y212417D01*
X92973Y212667D01*
X92733Y212833D01*
X92413Y212917D01*
X92227Y213083D01*
X92147Y213375D01*
X92200Y213667D01*
X92333Y213875D01*
X92520Y214000D01*
X92707D01*
X92893Y213917D01*
X93053Y213708D01*
G01X94800Y211417D02*
X94747Y211458D01*
Y211542D01*
X94800Y211583D01*
X94853Y211542D01*
Y211458D01*
X94800Y211417D01*
G01Y212542D02*
X94747Y212583D01*
Y212667D01*
X94800Y212708D01*
X94853Y212667D01*
Y212583D01*
X94800Y212542D01*
G01X102800Y225250D02*
X102587Y225292D01*
X102400Y225458D01*
X102240Y225708D01*
X102133Y226000D01*
X102080Y226333D01*
Y226667D01*
X102133Y227000D01*
X102240Y227292D01*
X102400Y227542D01*
X102587Y227708D01*
X102800Y227750D01*
X103013Y227708D01*
X103200Y227542D01*
X103360Y227292D01*
X103467Y227000D01*
X103520Y226667D01*
Y226333D01*
X103467Y226000D01*
X103360Y225708D01*
X103200Y225458D01*
X103013Y225292D01*
X102800Y225250D01*
G01X103013Y225917D02*
X103333Y225250D01*
G01X105000Y227750D02*
Y225250D01*
G01X104387Y227750D02*
X105613D01*
G01X107200Y225250D02*
Y226375D01*
X106667Y227750D01*
G01X107733D02*
X107200Y226375D01*
G01X103900Y219000D02*
Y221500D01*
X103580Y221000D01*
G01Y219000D02*
X104220D01*
G01X106420D02*
Y221500D01*
X105433Y219708D01*
X106767D01*
G01X103900Y211500D02*
Y214000D01*
X103580Y213500D01*
G01Y211500D02*
X104220D01*
G01X106420D02*
Y214000D01*
X105433Y212208D01*
X106767D01*
G01X166900Y86650D02*
Y89150D01*
X166580Y88650D01*
G01Y86650D02*
X167220D01*
G01X169100Y86567D02*
X169047Y86608D01*
Y86692D01*
X169100Y86733D01*
X169153Y86692D01*
Y86608D01*
X169100Y86567D01*
G01X170793Y87692D02*
X170980Y87983D01*
X171140Y88150D01*
X171353Y88233D01*
X171540Y88150D01*
X171673Y87983D01*
X171780Y87733D01*
X171807Y87442D01*
X171780Y87192D01*
X171673Y86942D01*
X171513Y86733D01*
X171327Y86650D01*
X171113Y86733D01*
X170927Y86983D01*
X170820Y87358D01*
X170793Y87775D01*
X170847Y88317D01*
X170927Y88608D01*
X171060Y88900D01*
X171247Y89108D01*
X171433Y89150D01*
X171620Y89067D01*
X171753Y88858D01*
G01X173500Y89150D02*
X173287Y89067D01*
X173127Y88858D01*
X173020Y88608D01*
X172940Y88275D01*
X172913Y87900D01*
X172940Y87525D01*
X173020Y87192D01*
X173127Y86942D01*
X173287Y86733D01*
X173500Y86650D01*
X173713Y86733D01*
X173873Y86942D01*
X173980Y87192D01*
X174060Y87525D01*
X174087Y87900D01*
X174060Y88275D01*
X173980Y88608D01*
X173873Y88858D01*
X173713Y89067D01*
X173500Y89150D01*
G54D12*
G01X-135700Y28339D02*
Y181939D01*
X-75700D01*
Y28339D01*
X-135700D01*
G01X0Y0D02*
Y160000D01*
X160000D01*
Y0D01*
X0D01*
G01X15000Y173300D02*
X0Y170800D01*
X15000Y168300D01*
Y173300D01*
G01X0Y170700D02*
Y180800D01*
G01X80125Y170800D02*
X0D01*
G01X23700Y216500D02*
Y259000D01*
X111900D01*
Y216500D01*
X23700D01*
G01Y229000D02*
X111900D01*
G01X23700Y224000D02*
X111900D01*
G01X23700Y234000D02*
X111900D01*
G01X39700Y229000D02*
Y216500D01*
G01X75500Y229000D02*
Y216500D01*
G01X92475Y170800D02*
X160000D01*
G01X98100Y229000D02*
Y216500D01*
G01X170700Y0D02*
X180200D01*
G01X170200Y84575D02*
Y0D01*
G01X167700Y15000D02*
X170200Y0D01*
X172700Y15000D01*
X167700D01*
G01X170200Y91225D02*
Y160000D01*
G01X170700D02*
X180200D01*
G01X172700Y145000D02*
X170200Y160000D01*
X167700Y145000D01*
X172700D01*
G01X145000Y168300D02*
X160000Y170800D01*
X145000Y173300D01*
Y168300D01*
G01X160000Y170700D02*
Y180800D01*
M02*
