G04 ================== begin FILE IDENTIFICATION RECORD ==================*
G04 Layout Name:  D:/p1/allegro/P1_COPIE2.brd*
G04 Film Name:    SPTOP*
G04 File Format:  Gerber RS274X*
G04 File Origin:  Cadence Allegro 17.2-S025*
G04 Origin Date:  Sun Dec 10 11:52:53 2023*
G04 *
G04 Layer:  VIA CLASS/PASTEMASK_TOP*
G04 Layer:  PIN/PASTEMASK_TOP*
G04 Layer:  PACKAGE GEOMETRY/PASTEMASK_TOP*
G04 Layer:  DRC ERROR CLASS/PASTEMASK_TOP*
G04 *
G04 Offset:    (0.00 0.00)*
G04 Mirror:    No*
G04 Mode:      Positive*
G04 Rotation:  0*
G04 FullContactRelief:  No*
G04 UndefLineWidth:     8.00*
G04 ================== end FILE IDENTIFICATION RECORD ====================*
%FSLAX25Y25*MOIN*%
%IR0*IPPOS*OFA0.00000B0.00000*MIA0B0*SFA1.00000B1.00000*%
%ADD12C,.04*%
%ADD11R,.108X.072*%
%ADD15R,.072X.108*%
%ADD10R,.045X.045*%
%ADD18R,.04606X.04606*%
%ADD14R,.0324X.045*%
%ADD16R,.045X.0324*%
%ADD13R,.0684X.0432*%
%ADD17R,.07087X.04606*%
%LPD*%
G75*
G54D10*
X15800Y36000D03*
X24200D03*
X16200Y91800D03*
Y100200D03*
X51900Y20100D03*
X29400Y91800D03*
Y100200D03*
X43500Y83800D03*
Y92200D03*
X54300Y117900D03*
Y126300D03*
X60300Y20100D03*
X69500Y12400D03*
Y20800D03*
X82500Y14100D03*
X58800Y72900D03*
Y81300D03*
X77300Y67100D03*
Y75500D03*
X77400Y95900D03*
Y87500D03*
X80600Y137900D03*
Y146300D03*
X90900Y14100D03*
X99000Y43700D03*
X90600D03*
X88900Y75500D03*
Y67100D03*
X99100Y56900D03*
X107500D03*
X116300Y138200D03*
X94800Y117900D03*
Y126300D03*
X116400Y126000D03*
X116500Y115900D03*
X120200Y68500D03*
X128600D03*
X144600Y103200D03*
Y94800D03*
X124700Y138200D03*
X124800Y126000D03*
X124900Y115900D03*
G54D11*
X16000Y52400D03*
Y76000D03*
X144700Y34500D03*
Y58100D03*
X144300Y114500D03*
Y138100D03*
G54D12*
X20000Y140000D03*
X140000Y20000D03*
G54D13*
X16300Y126400D03*
Y118500D03*
X144600Y75400D03*
Y83300D03*
G54D14*
X47800Y41800D03*
X43700Y33700D03*
X51900D03*
X47900Y54500D03*
X52000Y62600D03*
X43800D03*
X54400Y100400D03*
X33500Y126400D03*
X29400Y118300D03*
X37600D03*
X65500Y51500D03*
X65600Y41000D03*
X61500Y32900D03*
X69700D03*
X69600Y59600D03*
X61400D03*
X58500Y92300D03*
X62600Y100400D03*
X76500Y126400D03*
X72400Y118300D03*
X80600D03*
X113400Y34000D03*
X94900Y138100D03*
X103100D03*
X99000Y146200D03*
X117500Y25900D03*
X121600Y34000D03*
G54D15*
X33500Y142900D03*
X57100D03*
G54D16*
X99100Y29100D03*
X91000Y33200D03*
Y25000D03*
G54D17*
X107728Y81356D03*
G54D18*
X112255Y103600D03*
X103200D03*
M02*
